<?xml version="1.0" standalone="no"?>
<!DOCTYPE svg PUBLIC "-//W3C//DTD SVG 20010904//EN"
 "http://www.w3.org/TR/2001/REC-SVG-20010904/DTD/svg10.dtd">
<svg version="1.0" xmlns="http://www.w3.org/2000/svg"
 width="700.000000pt" height="700.000000pt" viewBox="0 0 700.000000 700.000000"
 preserveAspectRatio="xMidYMid meet">
<metadata>
Created by potrace 1.14, written by Peter Selinger 2001-2017
</metadata>
<g transform="translate(0.000000,700.000000) scale(0.100000,-0.100000)"
fill="#000000" stroke="none">
<path d="M1095 6993 c-541 -69 -958 -452 -1072 -983 -17 -81 -18 -203 -18
-2510 0 -2307 1 -2429 18 -2510 55 -257 171 -465 358 -646 172 -165 369 -269
609 -321 81 -17 200 -18 2510 -18 2307 0 2429 1 2510 18 251 54 463 170 637
348 173 177 276 371 330 619 17 81 18 200 18 2510 0 2307 -1 2429 -18 2510
-53 248 -157 442 -330 619 -170 174 -373 287 -627 347 -71 17 -204 18 -2485
20 -1325 1 -2423 -1 -2440 -3z m2690 -1488 c271 -57 483 -172 685 -375 205
-204 319 -410 377 -680 17 -80 18 -166 18 -1408 l0 -1323 -285 -125 c-157 -68
-286 -124 -287 -124 -2 0 -3 455 -3 1010 0 556 -2 1010 -5 1010 -10 0 -1189
-482 -1230 -502 -124 -63 -244 -176 -289 -272 -55 -116 -51 -239 10 -356 66
-126 197 -229 347 -271 71 -21 104 -24 242 -24 177 0 235 11 353 67 36 17 67
27 69 22 2 -5 50 -126 107 -269 119 -296 119 -265 -2 -316 -280 -116 -643
-129 -939 -33 -161 52 -339 155 -488 282 -169 145 -285 343 -326 559 -18 97
-6 368 21 468 74 274 248 476 535 620 61 31 443 192 850 359 l740 303 3 53 c7
112 -47 289 -123 405 -50 77 -176 201 -248 244 -126 74 -264 111 -422 111
-177 0 -336 -55 -473 -165 -182 -146 -283 -342 -299 -581 l-6 -92 -280 -123
c-153 -68 -283 -125 -288 -127 -15 -6 -10 383 5 488 37 245 153 483 349 716
222 265 465 405 796 459 113 19 376 13 486 -10z"/>
</g>
</svg>
